<svg xmlns="http://www.w3.org/2000/svg" xmlns:xlink="http://www.w3.org/1999/xlink" width="172.558" height="43.92" viewBox="0 0 172.558 43.92">
  <defs>
    <clipPath id="clip-path">
      <path id="Path_13022" data-name="Path 13022" d="M20.185,0A20.185,20.185,0,1,1,0,20.185,20.185,20.185,0,0,1,20.185,0Z" fill="#e5e23a" stroke="#707070" stroke-width="1"/>
    </clipPath>
  </defs>
  <g id="Group_391" data-name="Group 391" transform="translate(-197.326 -18.052)">
    <g id="Group_24" data-name="Group 24" transform="translate(197.326 18.052)">
      <g id="Group_24-2" data-name="Group 24" transform="translate(0 0.757)">
        <path id="Subtraction_1" data-name="Subtraction 1" d="M21.58,43.163a21.739,21.739,0,0,1-4.349-.438,21.462,21.462,0,0,1-7.717-3.247,21.644,21.644,0,0,1-7.819-9.5A21.474,21.474,0,0,1,.438,25.931a21.792,21.792,0,0,1,0-8.7A21.464,21.464,0,0,1,3.686,9.515,21.644,21.644,0,0,1,13.18,1.7,21.471,21.471,0,0,1,17.231.438a21.738,21.738,0,0,1,10.892.571,21.483,21.483,0,0,1,5.736,2.822H31.245A20.113,20.113,0,0,0,21.58,1.375a20.354,20.354,0,0,0-4.072.411,20.095,20.095,0,0,0-7.225,3.04,20.266,20.266,0,0,0-7.321,8.89,20.106,20.106,0,0,0-1.177,3.793,20.4,20.4,0,0,0,0,8.145,20.1,20.1,0,0,0,3.04,7.225,20.265,20.265,0,0,0,8.89,7.321,20.1,20.1,0,0,0,3.793,1.177,20.4,20.4,0,0,0,8.144,0,20.095,20.095,0,0,0,7.225-3.04,20.266,20.266,0,0,0,7.321-8.89,20.105,20.105,0,0,0,1.177-3.793,20.4,20.4,0,0,0-.015-8.217v-4.5A21.475,21.475,0,0,1,42.7,17.1a21.788,21.788,0,0,1,.028,8.831,21.464,21.464,0,0,1-3.247,7.717,21.644,21.644,0,0,1-9.495,7.819,21.471,21.471,0,0,1-4.051,1.258A21.739,21.739,0,0,1,21.58,43.163ZM39.567,9.652H37.891a20.419,20.419,0,0,0-1.885-2.22V5.53a21.707,21.707,0,0,1,3.561,4.121Z" transform="translate(0 0)" fill="#4d3d33"/>
        <g id="Mask_Group_1" data-name="Mask Group 1" transform="translate(1.389 1.397)" clip-path="url(#clip-path)">
          <path id="Union_5" data-name="Union 5" d="M13.752,34.6a5.492,5.492,0,0,1-5.491-5.493V27.573a4.105,4.105,0,0,1-1.9.461H4.119A4.12,4.12,0,0,1,0,23.914v-7.46a4.12,4.12,0,0,1,4.119-4.119H4.13v-.559A3.5,3.5,0,0,1,1.906,8.519V8.461a3.5,3.5,0,0,1,6.991,0v.059a3.5,3.5,0,0,1-2.542,3.364v.452h.011A4.1,4.1,0,0,1,9.2,13.469a5.487,5.487,0,0,1,4.55-2.415h.64V10.22a5.193,5.193,0,0,1-3.3-4.836V5.189a5.189,5.189,0,1,1,10.379,0v.194a5.192,5.192,0,0,1-3.775,4.993v.677h.641a5.488,5.488,0,0,1,4.675,2.609,4.109,4.109,0,0,1,3.03-1.328h.011v-.559a3.493,3.493,0,0,1-2.224-3.256V8.461a3.494,3.494,0,1,1,6.988,0v.059a3.5,3.5,0,0,1-2.541,3.364v.452h.011A4.12,4.12,0,0,1,32.4,16.454v7.46a4.119,4.119,0,0,1-4.119,4.119H26.041a4.1,4.1,0,0,1-2.213-.644v1.72A5.493,5.493,0,0,1,18.336,34.6Z" transform="translate(4.394 13.868)" fill="#eaa663"/>
          <g id="noun_Doctor_1396017" transform="translate(17.495 24.916)">
            <g id="Group" transform="translate(0 0)">
              <path id="Compound_Path" data-name="Compound Path" d="M14.9,8.221v2.188a2.9,2.9,0,0,0,2.5,2.872v3.3a2.872,2.872,0,1,0,5.744,0V14.8a1.5,1.5,0,1,0-.8,0v1.782a2.074,2.074,0,1,1-4.148,0v-3.3a2.9,2.9,0,0,0,2.486-2.872V8.2s-.164-.019-.363-.025-.434,0-.434,0v2.232a2.094,2.094,0,0,1-4.188,0V8.191s-.221-.007-.42,0S14.9,8.221,14.9,8.221Zm7.126,5.126a.7.7,0,1,1,.7.7A.7.7,0,0,1,22.026,13.347Z" transform="translate(-14.9 -8.174)" fill="#6d3d0f"/>
            </g>
          </g>
        </g>
      </g>
      <g id="Group_25" data-name="Group 25" transform="translate(28.905 0)">
        <path id="Union_11" data-name="Union 11" d="M6.3,17.025a.549.549,0,0,1-.55-.548v-5.2H.55A.549.549,0,0,1,0,10.728V6.3a.549.549,0,0,1,.55-.55h5.2V.55A.549.549,0,0,1,6.3,0h4.429a.549.549,0,0,1,.55.55v5.2h5.2a.549.549,0,0,1,.55.55v4.429a.549.549,0,0,1-.55.548h-5.2v5.2a.549.549,0,0,1-.55.548Z" transform="translate(0)" fill="#ba2b0c"/>
      </g>
    </g>
    <g id="Group_19" data-name="Group 19" transform="translate(251.264 29.518)">
      <path id="Path_13041" data-name="Path 13041" d="M15.622-68.981a3.961,3.961,0,0,1,2.857.989,3.626,3.626,0,0,1,1.032,2.749,4.012,4.012,0,0,1-.391,1.738,3.266,3.266,0,0,1-1.152,1.336,3.714,3.714,0,0,1-1.89.576l-.087-.435a5.526,5.526,0,0,1,1.575.228,3.887,3.887,0,0,1,1.38.728,3.72,3.72,0,0,1,.978,1.249,4.072,4.072,0,0,1,.369,1.814,4.566,4.566,0,0,1-.38,1.945,3.518,3.518,0,0,1-1.021,1.315,4.307,4.307,0,0,1-1.467.739,6.143,6.143,0,0,1-1.717.239H9.864a.625.625,0,0,1-.456-.2.625.625,0,0,1-.2-.456V-68.329a.625.625,0,0,1,.2-.456.625.625,0,0,1,.456-.2ZM15.448-67.7H10.342l.261-.391v6.149l-.239-.326h5.085a2.77,2.77,0,0,0,1.9-.739,2.768,2.768,0,0,0,.771-2.129,2.517,2.517,0,0,0-.7-1.88A2.7,2.7,0,0,0,15.448-67.7Zm.152,6.736H10.494l.109-.13v6.236l-.13-.2h5.172a3.745,3.745,0,0,0,2.325-.706,2.637,2.637,0,0,0,.934-2.249,2.976,2.976,0,0,0-.456-1.738,2.52,2.52,0,0,0-1.217-.934A4.643,4.643,0,0,0,15.6-60.963Zm18.514-8.018a.625.625,0,0,1,.478.185.655.655,0,0,1,.174.467v9a5.672,5.672,0,0,1-.761,2.912,5.782,5.782,0,0,1-2.043,2.075,5.5,5.5,0,0,1-2.89.771,5.553,5.553,0,0,1-2.9-.771,5.754,5.754,0,0,1-2.053-2.075,5.672,5.672,0,0,1-.761-2.912v-9a.633.633,0,0,1,.185-.467.69.69,0,0,1,.511-.185.644.644,0,0,1,.456.185.615.615,0,0,1,.2.467v9a4.319,4.319,0,0,0,.6,2.26,4.558,4.558,0,0,0,1.6,1.6,4.159,4.159,0,0,0,2.173.6,4.238,4.238,0,0,0,2.216-.6,4.558,4.558,0,0,0,1.6-1.6,4.319,4.319,0,0,0,.6-2.26v-9a.655.655,0,0,1,.174-.467A.6.6,0,0,1,34.114-68.981ZM39.59-53.771a.743.743,0,0,1-.532-.2.61.61,0,0,1-.206-.456V-68.329a.625.625,0,0,1,.2-.456.625.625,0,0,1,.456-.2H45.37a4.559,4.559,0,0,1,2.216.532,3.928,3.928,0,0,1,1.532,1.467,4.053,4.053,0,0,1,.554,2.108,4.387,4.387,0,0,1-.348,1.76,3.778,3.778,0,0,1-.978,1.358,4.069,4.069,0,0,1-1.412.815l-.761-.239a3.225,3.225,0,0,1,1.5.511,3.3,3.3,0,0,1,1.119,1.217,3.976,3.976,0,0,1,.445,1.858,12.76,12.76,0,0,0,.1,1.456,2.248,2.248,0,0,0,.228.782,1.19,1.19,0,0,0,.391.413.647.647,0,0,1,.293.369.535.535,0,0,1-.054.456.523.523,0,0,1-.25.25.788.788,0,0,1-.337.076.771.771,0,0,1-.348-.087,2.427,2.427,0,0,1-.619-.543,2.92,2.92,0,0,1-.522-1.086,7.563,7.563,0,0,1-.206-2,3.108,3.108,0,0,0-.272-1.391,2.169,2.169,0,0,0-.7-.837,2.712,2.712,0,0,0-.934-.413,4.249,4.249,0,0,0-.967-.12H39.981l.239-.3v6.149a.665.665,0,0,1-.174.456A.581.581,0,0,1,39.59-53.771Zm.391-7.692h5.454a3.005,3.005,0,0,0,1.391-.489,3.151,3.151,0,0,0,1.054-1.163,3.536,3.536,0,0,0,.4-1.717,2.746,2.746,0,0,0-.837-2.053,3,3,0,0,0-2.184-.815H40.068l.152-.3v6.845Zm21.838,6.41a.644.644,0,0,1,.456.185.591.591,0,0,1,.2.445.615.615,0,0,1-.2.467.644.644,0,0,1-.456.185H54.062a.615.615,0,0,1-.467-.2.644.644,0,0,1-.185-.456V-68.329a.625.625,0,0,1,.2-.456.677.677,0,0,1,.5-.2.662.662,0,0,1,.467.2.61.61,0,0,1,.206.456v13.646l-.413-.369ZM72.727-69.068a.6.6,0,0,1,.467.206.657.657,0,0,1,.185.445.649.649,0,0,1-.033.206,1.052,1.052,0,0,1-.1.206l-5.106,7.019.261-.847v7.41a.625.625,0,0,1-.2.456.65.65,0,0,1-.478.2.615.615,0,0,1-.467-.2.644.644,0,0,1-.185-.456V-61.68l.109.522-4.976-6.8a.806.806,0,0,1-.13-.228.667.667,0,0,1-.043-.228.576.576,0,0,1,.228-.467.738.738,0,0,1,.467-.185.647.647,0,0,1,.543.3L67.947-62.4l-.326-.043,4.541-6.323A.665.665,0,0,1,72.727-69.068Zm13.32.826a1.154,1.154,0,0,1,.663.891,1.339,1.339,0,0,1-.315,1.108.988.988,0,0,1-.728.435,1.69,1.69,0,0,1-.9-.174,5.587,5.587,0,0,0-1.1-.369,5.446,5.446,0,0,0-1.206-.13,5.608,5.608,0,0,0-2.1.369,4.4,4.4,0,0,0-1.575,1.054A4.557,4.557,0,0,0,77.8-63.44a6.05,6.05,0,0,0-.337,2.064,6.342,6.342,0,0,0,.38,2.3,4.5,4.5,0,0,0,1.054,1.63,4.24,4.24,0,0,0,1.586.967,6.021,6.021,0,0,0,1.977.315,6.431,6.431,0,0,0,1.173-.109,4.027,4.027,0,0,0,1.13-.391,1.544,1.544,0,0,1,.9-.152,1.138,1.138,0,0,1,.75.456,1.311,1.311,0,0,1,.315,1.119,1.145,1.145,0,0,1-.663.837,7.641,7.641,0,0,1-1.163.467,8.818,8.818,0,0,1-1.206.282,7.794,7.794,0,0,1-1.239.1,8.764,8.764,0,0,1-2.966-.5A7.511,7.511,0,0,1,77-55.531a6.83,6.83,0,0,1-1.727-2.445,8.554,8.554,0,0,1-.63-3.4,8.1,8.1,0,0,1,.576-3.086,7.166,7.166,0,0,1,1.63-2.445,7.514,7.514,0,0,1,2.488-1.608,8.322,8.322,0,0,1,3.129-.576,8.04,8.04,0,0,1,1.869.217A7.592,7.592,0,0,1,86.047-68.243Zm8.561,2.673L89.915-54.531a1.337,1.337,0,0,1-.467.641,1.143,1.143,0,0,1-.684.228,1.089,1.089,0,0,1-.869-.326,1.184,1.184,0,0,1-.282-.8,1.438,1.438,0,0,1,.065-.413L93.088-68.2a1.417,1.417,0,0,1,.532-.674,1.138,1.138,0,0,1,.771-.2,1.273,1.273,0,0,1,.728.228,1.287,1.287,0,0,1,.489.641l5.345,12.733a1.462,1.462,0,0,1,.109.522,1.2,1.2,0,0,1-.38.934,1.214,1.214,0,0,1-.837.348,1.14,1.14,0,0,1-.706-.239,1.553,1.553,0,0,1-.489-.652L93.979-65.439Zm-4.02,8.388,1.2-2.5h5.867l.413,2.5Zm13.885,3.412a1.7,1.7,0,0,1-1.086-.38,1.163,1.163,0,0,1-.478-.945v-12.56a1.283,1.283,0,0,1,.38-.945,1.283,1.283,0,0,1,.945-.38h6.258a4.026,4.026,0,0,1,2.119.6,4.542,4.542,0,0,1,1.6,1.651,4.758,4.758,0,0,1,.608,2.423,4.028,4.028,0,0,1-.337,1.608,5.026,5.026,0,0,1-.913,1.412,4.269,4.269,0,0,1-1.293.978l.022-.5a3.691,3.691,0,0,1,1.01.771,3.643,3.643,0,0,1,.63.956,3.258,3.258,0,0,1,.272,1.1q.087.543.12.956a2.833,2.833,0,0,0,.13.7.769.769,0,0,0,.38.435,1.223,1.223,0,0,1,.6.815,1.013,1.013,0,0,1-.25.945,1.052,1.052,0,0,1-.608.359,1.813,1.813,0,0,1-.739,0,2.208,2.208,0,0,1-.608-.206,3.073,3.073,0,0,1-.739-.641,3.189,3.189,0,0,1-.6-1.141,6.22,6.22,0,0,1-.228-1.847,1.773,1.773,0,0,0-.13-.684,1.573,1.573,0,0,0-.369-.543,1.561,1.561,0,0,0-.608-.348,2.832,2.832,0,0,0-.869-.12H105.3l.326-.5V-55.1a1.465,1.465,0,0,1-.3.945A1.024,1.024,0,0,1,104.474-53.771Zm.847-7.779h5.063a1.1,1.1,0,0,0,.761-.359,2.689,2.689,0,0,0,.608-.978,3.742,3.742,0,0,0,.239-1.358,2.483,2.483,0,0,0-.511-1.6,1.426,1.426,0,0,0-1.1-.641h-5.02l.261-.7v6.149Zm13.842-7.431h7.279a1.325,1.325,0,0,1,.945.359,1.212,1.212,0,0,1,.38.924,1.12,1.12,0,0,1-.38.88,1.374,1.374,0,0,1-.945.337h-6.084l.2-.369v4.237l-.174-.174h5.085a1.325,1.325,0,0,1,.945.359,1.212,1.212,0,0,1,.38.924,1.12,1.12,0,0,1-.38.88,1.374,1.374,0,0,1-.945.337h-5.02l.109-.174v4.389l-.174-.2h6.063a1.283,1.283,0,0,1,.945.38,1.208,1.208,0,0,1,.38.88,1.153,1.153,0,0,1-.38.891,1.348,1.348,0,0,1-.945.348h-7.279a1.283,1.283,0,0,1-.945-.38,1.283,1.283,0,0,1-.38-.945v-12.56a1.283,1.283,0,0,1,.38-.945A1.283,1.283,0,0,1,119.163-68.981Z" transform="translate(-9.148 69.09)" fill="#4d3d33"/>
      <path id="Path_13042" data-name="Path 13042" d="M6-25.186a.232.232,0,0,1,.109.159.26.26,0,0,1-.047.19.193.193,0,0,1-.14.078.3.3,0,0,1-.163-.031,2.588,2.588,0,0,0-.632-.3A2.355,2.355,0,0,0,4.4-25.2a2.3,2.3,0,0,0-.881.167,2.057,2.057,0,0,0-.71.481,2.221,2.221,0,0,0-.47.741,2.558,2.558,0,0,0-.167.939,2.58,2.58,0,0,0,.171.958,2.189,2.189,0,0,0,.477.741,2.085,2.085,0,0,0,.71.473,2.3,2.3,0,0,0,.869.163,2.329,2.329,0,0,0,.718-.109,2.766,2.766,0,0,0,.632-.295.252.252,0,0,1,.167-.035.2.2,0,0,1,.144.089.212.212,0,0,1,.05.182.225.225,0,0,1-.1.151,2.9,2.9,0,0,1-.458.233,3.433,3.433,0,0,1-.559.175,2.7,2.7,0,0,1-.59.066,2.719,2.719,0,0,1-1.048-.2,2.739,2.739,0,0,1-.869-.57,2.608,2.608,0,0,1-.594-.881,2.939,2.939,0,0,1-.213-1.141,2.894,2.894,0,0,1,.21-1.114,2.669,2.669,0,0,1,.582-.881,2.7,2.7,0,0,1,.869-.582,2.707,2.707,0,0,1,1.063-.21,2.938,2.938,0,0,1,.854.124A2.738,2.738,0,0,1,6-25.186Zm4.68,3.042a2.176,2.176,0,0,1-.256,1.059,1.916,1.916,0,0,1-.7.737,1.91,1.91,0,0,1-1.009.268,1.9,1.9,0,0,1-1-.268,1.936,1.936,0,0,1-.706-.737,2.15,2.15,0,0,1-.26-1.059,2.144,2.144,0,0,1,.26-1.063,1.973,1.973,0,0,1,.706-.737,1.88,1.88,0,0,1,1-.272,1.889,1.889,0,0,1,1.009.272,1.953,1.953,0,0,1,.7.737A2.17,2.17,0,0,1,10.682-22.144Zm-.466,0a1.781,1.781,0,0,0-.194-.842,1.5,1.5,0,0,0-.532-.582,1.414,1.414,0,0,0-.772-.213,1.406,1.406,0,0,0-.761.213,1.52,1.52,0,0,0-.539.582,1.752,1.752,0,0,0-.2.842,1.73,1.73,0,0,0,.2.838,1.527,1.527,0,0,0,.539.578,1.406,1.406,0,0,0,.761.213,1.414,1.414,0,0,0,.772-.213,1.508,1.508,0,0,0,.532-.578A1.758,1.758,0,0,0,10.217-22.144Zm3.329-2.072a1.448,1.448,0,0,1,.819.206,1.155,1.155,0,0,1,.442.559,2.156,2.156,0,0,1,.136.78v2.282a.223.223,0,0,1-.07.163.223.223,0,0,1-.163.07.217.217,0,0,1-.171-.07.238.238,0,0,1-.062-.163v-2.258a1.533,1.533,0,0,0-.1-.567.873.873,0,0,0-.33-.411,1.053,1.053,0,0,0-.6-.155,1.353,1.353,0,0,0-.632.155,1.369,1.369,0,0,0-.485.411.941.941,0,0,0-.186.567v2.258a.223.223,0,0,1-.07.163.223.223,0,0,1-.163.07.217.217,0,0,1-.171-.07.238.238,0,0,1-.062-.163v-3.477a.23.23,0,0,1,.066-.163.22.22,0,0,1,.167-.07.22.22,0,0,1,.167.07.23.23,0,0,1,.066.163v.652l-.178.279a1.007,1.007,0,0,1,.159-.477,1.673,1.673,0,0,1,.369-.411,1.813,1.813,0,0,1,.5-.287A1.551,1.551,0,0,1,13.546-24.216Zm4.486,0a1.448,1.448,0,0,1,.819.206,1.155,1.155,0,0,1,.442.559,2.156,2.156,0,0,1,.136.78v2.282a.223.223,0,0,1-.07.163.223.223,0,0,1-.163.07.217.217,0,0,1-.171-.07.238.238,0,0,1-.062-.163v-2.258a1.533,1.533,0,0,0-.1-.567.873.873,0,0,0-.33-.411,1.053,1.053,0,0,0-.6-.155,1.353,1.353,0,0,0-.632.155,1.369,1.369,0,0,0-.485.411.941.941,0,0,0-.186.567v2.258a.223.223,0,0,1-.07.163.223.223,0,0,1-.163.07.217.217,0,0,1-.171-.07.238.238,0,0,1-.062-.163v-3.477a.23.23,0,0,1,.066-.163.22.22,0,0,1,.167-.07.22.22,0,0,1,.167.07.23.23,0,0,1,.066.163v.652l-.178.279a1.007,1.007,0,0,1,.159-.477,1.673,1.673,0,0,1,.369-.411,1.813,1.813,0,0,1,.5-.287A1.551,1.551,0,0,1,18.031-24.216Zm4.408,4.136a2.126,2.126,0,0,1-1.055-.256,1.822,1.822,0,0,1-.714-.714,2.158,2.158,0,0,1-.256-1.071,2.276,2.276,0,0,1,.26-1.125,1.9,1.9,0,0,1,.675-.718,1.669,1.669,0,0,1,.881-.252,1.882,1.882,0,0,1,.664.12,1.7,1.7,0,0,1,.574.357,1.759,1.759,0,0,1,.4.578,2.122,2.122,0,0,1,.167.792.24.24,0,0,1-.078.159.23.23,0,0,1-.163.066H20.686l-.093-.419H23.65l-.1.093v-.155a1.134,1.134,0,0,0-.233-.621,1.314,1.314,0,0,0-.489-.388,1.416,1.416,0,0,0-.6-.132,1.336,1.336,0,0,0-.477.093,1.253,1.253,0,0,0-.442.291,1.5,1.5,0,0,0-.322.5,1.927,1.927,0,0,0-.124.726,1.831,1.831,0,0,0,.186.83,1.43,1.43,0,0,0,.539.59,1.575,1.575,0,0,0,.842.217,1.447,1.447,0,0,0,.489-.078,1.339,1.339,0,0,0,.38-.206,1.57,1.57,0,0,0,.272-.268.27.27,0,0,1,.171-.07.181.181,0,0,1,.136.062.2.2,0,0,1,.058.14.213.213,0,0,1-.078.163,2.091,2.091,0,0,1-.605.485A1.658,1.658,0,0,1,22.439-20.08Zm4.338-4.136a2.687,2.687,0,0,1,.683.081,1.474,1.474,0,0,1,.5.221.386.386,0,0,1,.19.3.253.253,0,0,1-.054.151.174.174,0,0,1-.147.074.235.235,0,0,1-.151-.047,1.118,1.118,0,0,1-.116-.109.587.587,0,0,0-.167-.116,1.392,1.392,0,0,0-.287-.085,2.106,2.106,0,0,0-.427-.039,1.453,1.453,0,0,0-.784.217,1.559,1.559,0,0,0-.551.586,1.693,1.693,0,0,0-.2.826,1.787,1.787,0,0,0,.194.838,1.484,1.484,0,0,0,.535.586,1.477,1.477,0,0,0,.8.213,1.661,1.661,0,0,0,.481-.054,1.58,1.58,0,0,0,.295-.124.773.773,0,0,0,.213-.167.213.213,0,0,1,.175-.081.189.189,0,0,1,.151.058.223.223,0,0,1,.05.151.4.4,0,0,1-.182.275,1.638,1.638,0,0,1-.5.264,2.182,2.182,0,0,1-.729.113,1.9,1.9,0,0,1-1.021-.272,1.869,1.869,0,0,1-.683-.741,2.259,2.259,0,0,1-.244-1.059,2.158,2.158,0,0,1,.248-1.032,1.972,1.972,0,0,1,.695-.749A1.891,1.891,0,0,1,26.778-24.216Zm2.018.109H30.6a.2.2,0,0,1,.155.066.224.224,0,0,1,.062.159.2.2,0,0,1-.062.147.211.211,0,0,1-.155.062H28.8a.217.217,0,0,1-.159-.066.208.208,0,0,1-.066-.151.2.2,0,0,1,.066-.155A.224.224,0,0,1,28.8-24.107Zm.8-1.094a.22.22,0,0,1,.167.07.23.23,0,0,1,.066.163v3.9a.712.712,0,0,0,.058.326.289.289,0,0,0,.151.144.527.527,0,0,0,.186.035.311.311,0,0,0,.113-.019.311.311,0,0,1,.113-.019.159.159,0,0,1,.12.054.2.2,0,0,1,.05.14.213.213,0,0,1-.124.182.567.567,0,0,1-.295.074q-.07,0-.21-.012a.789.789,0,0,1-.287-.085.571.571,0,0,1-.244-.26,1.185,1.185,0,0,1-.1-.535v-3.919a.23.23,0,0,1,.066-.163A.22.22,0,0,1,29.595-25.2Zm2.538,4.812a.223.223,0,0,1-.07.163.223.223,0,0,1-.163.07.22.22,0,0,1-.167-.07.23.23,0,0,1-.066-.163v-3.57a.23.23,0,0,1,.066-.163.22.22,0,0,1,.167-.07.22.22,0,0,1,.167.07.23.23,0,0,1,.066.163ZM31.9-24.713a.354.354,0,0,1-.244-.074A.273.273,0,0,1,31.574-25v-.078a.261.261,0,0,1,.089-.213.373.373,0,0,1,.244-.074.329.329,0,0,1,.229.074.273.273,0,0,1,.081.213V-25a.273.273,0,0,1-.081.213A.341.341,0,0,1,31.9-24.713Zm3.314.5a1.448,1.448,0,0,1,.819.206,1.155,1.155,0,0,1,.442.559,2.156,2.156,0,0,1,.136.78v2.282a.223.223,0,0,1-.07.163.223.223,0,0,1-.163.07.217.217,0,0,1-.171-.07.238.238,0,0,1-.062-.163v-2.258a1.533,1.533,0,0,0-.1-.567.873.873,0,0,0-.33-.411,1.053,1.053,0,0,0-.6-.155,1.353,1.353,0,0,0-.632.155,1.369,1.369,0,0,0-.485.411.941.941,0,0,0-.186.567v2.258a.223.223,0,0,1-.07.163.223.223,0,0,1-.163.07.217.217,0,0,1-.171-.07.238.238,0,0,1-.062-.163v-3.477a.23.23,0,0,1,.066-.163.22.22,0,0,1,.167-.07.22.22,0,0,1,.167.07.23.23,0,0,1,.066.163v.652l-.178.279a1.007,1.007,0,0,1,.159-.477,1.673,1.673,0,0,1,.369-.411,1.813,1.813,0,0,1,.5-.287A1.551,1.551,0,0,1,35.213-24.216Zm4.268,0a1.689,1.689,0,0,1,.644.12,1.865,1.865,0,0,1,.516.31,1.6,1.6,0,0,1,.345.4.813.813,0,0,1,.124.407l-.132-.186v-.722a.239.239,0,0,1,.066-.171.22.22,0,0,1,.167-.07.217.217,0,0,1,.171.07.248.248,0,0,1,.062.171v3.36a2,2,0,0,1-.256,1.048,1.676,1.676,0,0,1-.695.648,2.184,2.184,0,0,1-1,.221,2.507,2.507,0,0,1-.57-.07,2.272,2.272,0,0,1-.512-.178q-.213-.109-.237-.225a.19.19,0,0,1-.058-.136.149.149,0,0,1,.066-.113.149.149,0,0,1,.163-.012q.085.043.256.113.078.023.21.07a2.195,2.195,0,0,0,.314.081,2.04,2.04,0,0,0,.384.035,1.431,1.431,0,0,0,1.083-.4,1.454,1.454,0,0,0,.384-1.052v-.745l.085.023a1.333,1.333,0,0,1-.229.489,1.526,1.526,0,0,1-.376.353,1.724,1.724,0,0,1-.47.217,1.777,1.777,0,0,1-.5.074,1.754,1.754,0,0,1-.962-.272,1.965,1.965,0,0,1-.679-.737,2.2,2.2,0,0,1-.252-1.063,2.2,2.2,0,0,1,.252-1.059,1.938,1.938,0,0,1,.675-.737A1.754,1.754,0,0,1,39.482-24.216Zm.054.435a1.4,1.4,0,0,0-.764.213,1.472,1.472,0,0,0-.528.582,1.793,1.793,0,0,0-.19.834,1.817,1.817,0,0,0,.19.838,1.466,1.466,0,0,0,.528.586,1.4,1.4,0,0,0,.764.213,1.4,1.4,0,0,0,.761-.21,1.482,1.482,0,0,0,.528-.578,1.8,1.8,0,0,0,.194-.85,1.8,1.8,0,0,0-.194-.85,1.453,1.453,0,0,0-.528-.574A1.42,1.42,0,0,0,39.536-23.781Zm7.442-1.808a1.477,1.477,0,0,1,.768.2,1.431,1.431,0,0,1,.528.547,1.618,1.618,0,0,1,.194.8,1.685,1.685,0,0,1-.194.811,1.5,1.5,0,0,1-.528.57,1.414,1.414,0,0,1-.768.21H45.333l.039-.078v2.142a.223.223,0,0,1-.07.163.223.223,0,0,1-.163.07.217.217,0,0,1-.171-.07.238.238,0,0,1-.062-.163v-4.967a.223.223,0,0,1,.07-.163.223.223,0,0,1,.163-.07Zm0,2.685a.923.923,0,0,0,.528-.151,1.035,1.035,0,0,0,.353-.411,1.291,1.291,0,0,0,.128-.578,1.2,1.2,0,0,0-.128-.563.974.974,0,0,0-.353-.384.98.98,0,0,0-.528-.14H45.333l.039-.07v2.344l-.047-.047Zm5.65-1.218a.22.22,0,0,1,.167.07.239.239,0,0,1,.066.171v3.492a.223.223,0,0,1-.07.163.223.223,0,0,1-.163.07.22.22,0,0,1-.167-.07.23.23,0,0,1-.066-.163v-.924l.132-.062a.934.934,0,0,1-.12.442,1.6,1.6,0,0,1-.33.419,1.69,1.69,0,0,1-.493.314,1.542,1.542,0,0,1-.609.12,1.684,1.684,0,0,1-.943-.272,1.867,1.867,0,0,1-.652-.745,2.344,2.344,0,0,1-.237-1.063,2.277,2.277,0,0,1,.241-1.067,1.867,1.867,0,0,1,.652-.726,1.687,1.687,0,0,1,.931-.264,1.666,1.666,0,0,1,.625.116,1.627,1.627,0,0,1,.508.318,1.466,1.466,0,0,1,.338.462,1.27,1.27,0,0,1,.12.539L52.4-22.9v-.986a.239.239,0,0,1,.066-.171A.22.22,0,0,1,52.628-24.123Zm-1.614,3.609a1.279,1.279,0,0,0,.729-.213,1.457,1.457,0,0,0,.5-.59,1.906,1.906,0,0,0,.182-.842,1.814,1.814,0,0,0-.182-.823,1.5,1.5,0,0,0-.5-.582,1.263,1.263,0,0,0-.729-.217,1.3,1.3,0,0,0-.726.21,1.434,1.434,0,0,0-.5.574,1.85,1.85,0,0,0-.182.838,1.906,1.906,0,0,0,.182.842,1.457,1.457,0,0,0,.5.59A1.279,1.279,0,0,0,51.014-20.514Zm2.809-3.593h1.808a.2.2,0,0,1,.155.066.224.224,0,0,1,.062.159.2.2,0,0,1-.062.147.211.211,0,0,1-.155.062H53.823a.217.217,0,0,1-.159-.066.208.208,0,0,1-.066-.151.2.2,0,0,1,.066-.155A.224.224,0,0,1,53.823-24.107Zm.8-1.094a.22.22,0,0,1,.167.07.23.23,0,0,1,.066.163v3.9a.712.712,0,0,0,.058.326.289.289,0,0,0,.151.144.527.527,0,0,0,.186.035.311.311,0,0,0,.113-.019.311.311,0,0,1,.113-.019.159.159,0,0,1,.12.054.2.2,0,0,1,.05.14.213.213,0,0,1-.124.182.567.567,0,0,1-.295.074q-.07,0-.21-.012a.789.789,0,0,1-.287-.085.571.571,0,0,1-.244-.26,1.185,1.185,0,0,1-.1-.535v-3.919a.23.23,0,0,1,.066-.163A.22.22,0,0,1,54.622-25.2ZM57.16-20.39a.223.223,0,0,1-.07.163.223.223,0,0,1-.163.07.22.22,0,0,1-.167-.07.23.23,0,0,1-.066-.163v-3.57a.23.23,0,0,1,.066-.163.22.22,0,0,1,.167-.07.22.22,0,0,1,.167.07.23.23,0,0,1,.066.163Zm-.233-4.323a.354.354,0,0,1-.244-.074A.273.273,0,0,1,56.6-25v-.078a.261.261,0,0,1,.089-.213.373.373,0,0,1,.244-.074.329.329,0,0,1,.229.074.273.273,0,0,1,.081.213V-25a.273.273,0,0,1-.081.213A.341.341,0,0,1,56.927-24.713Zm3.236,4.633a2.126,2.126,0,0,1-1.055-.256,1.822,1.822,0,0,1-.714-.714,2.158,2.158,0,0,1-.256-1.071,2.276,2.276,0,0,1,.26-1.125,1.9,1.9,0,0,1,.675-.718,1.669,1.669,0,0,1,.881-.252,1.882,1.882,0,0,1,.664.12,1.7,1.7,0,0,1,.574.357,1.759,1.759,0,0,1,.4.578,2.122,2.122,0,0,1,.167.792.24.24,0,0,1-.078.159.23.23,0,0,1-.163.066H58.409l-.093-.419h3.058l-.1.093v-.155a1.134,1.134,0,0,0-.233-.621,1.315,1.315,0,0,0-.489-.388,1.416,1.416,0,0,0-.6-.132,1.336,1.336,0,0,0-.477.093,1.253,1.253,0,0,0-.442.291,1.5,1.5,0,0,0-.322.5,1.927,1.927,0,0,0-.124.726,1.831,1.831,0,0,0,.186.83,1.43,1.43,0,0,0,.539.59,1.575,1.575,0,0,0,.842.217,1.447,1.447,0,0,0,.489-.078,1.339,1.339,0,0,0,.38-.206,1.57,1.57,0,0,0,.272-.268.27.27,0,0,1,.171-.07.181.181,0,0,1,.136.062.2.2,0,0,1,.058.14.213.213,0,0,1-.078.163,2.091,2.091,0,0,1-.605.485A1.658,1.658,0,0,1,60.163-20.08Zm4.462-4.136a1.448,1.448,0,0,1,.819.206,1.155,1.155,0,0,1,.442.559,2.156,2.156,0,0,1,.136.78v2.282a.223.223,0,0,1-.07.163.223.223,0,0,1-.163.07.217.217,0,0,1-.171-.07.238.238,0,0,1-.062-.163v-2.258a1.533,1.533,0,0,0-.1-.567.873.873,0,0,0-.33-.411,1.053,1.053,0,0,0-.6-.155,1.353,1.353,0,0,0-.632.155,1.369,1.369,0,0,0-.485.411.941.941,0,0,0-.186.567v2.258a.223.223,0,0,1-.07.163.223.223,0,0,1-.163.07.217.217,0,0,1-.171-.07.238.238,0,0,1-.062-.163v-3.477a.23.23,0,0,1,.066-.163.22.22,0,0,1,.167-.07.22.22,0,0,1,.167.07.23.23,0,0,1,.066.163v.652l-.178.279a1.007,1.007,0,0,1,.159-.477,1.673,1.673,0,0,1,.369-.411,1.813,1.813,0,0,1,.5-.287A1.551,1.551,0,0,1,64.626-24.216Zm2.359.109h1.808a.2.2,0,0,1,.155.066.224.224,0,0,1,.062.159.2.2,0,0,1-.062.147.211.211,0,0,1-.155.062H66.985a.217.217,0,0,1-.159-.066.208.208,0,0,1-.066-.151.2.2,0,0,1,.066-.155A.224.224,0,0,1,66.985-24.107Zm.8-1.094a.22.22,0,0,1,.167.07.23.23,0,0,1,.066.163v3.9a.712.712,0,0,0,.058.326.289.289,0,0,0,.151.144.527.527,0,0,0,.186.035.311.311,0,0,0,.113-.019.311.311,0,0,1,.113-.019.159.159,0,0,1,.12.054.2.2,0,0,1,.05.14.213.213,0,0,1-.124.182.567.567,0,0,1-.295.074q-.07,0-.21-.012a.789.789,0,0,1-.287-.085.571.571,0,0,1-.244-.26,1.185,1.185,0,0,1-.1-.535v-3.919a.23.23,0,0,1,.066-.163A.22.22,0,0,1,67.784-25.2ZM69.8-20.786a.3.3,0,0,1-.058-.182.172.172,0,0,1,.1-.144.183.183,0,0,1,.144-.047.246.246,0,0,1,.151.078,1.654,1.654,0,0,0,.508.438,1.434,1.434,0,0,0,.71.167,1.311,1.311,0,0,0,.431-.074.847.847,0,0,0,.353-.225.544.544,0,0,0,.14-.384.541.541,0,0,0-.14-.388.968.968,0,0,0-.361-.233,3.992,3.992,0,0,0-.47-.147q-.264-.07-.512-.159a1.793,1.793,0,0,1-.438-.225,1.094,1.094,0,0,1-.307-.33.9.9,0,0,1-.116-.473.959.959,0,0,1,.178-.574,1.19,1.19,0,0,1,.485-.388,1.657,1.657,0,0,1,.695-.14,1.923,1.923,0,0,1,.419.05,1.741,1.741,0,0,1,.442.167,1.329,1.329,0,0,1,.388.318.219.219,0,0,1,.07.159.21.21,0,0,1-.078.159.233.233,0,0,1-.144.047.173.173,0,0,1-.136-.062,1.225,1.225,0,0,0-.442-.318,1.4,1.4,0,0,0-.551-.109,1.2,1.2,0,0,0-.423.074.817.817,0,0,0-.33.221.56.56,0,0,0-.132.388.541.541,0,0,0,.159.365,1.132,1.132,0,0,0,.38.233,4.78,4.78,0,0,0,.532.171,4.462,4.462,0,0,1,.477.147,1.657,1.657,0,0,1,.4.213.959.959,0,0,1,.279.322,1.021,1.021,0,0,1,.1.489.942.942,0,0,1-.19.59,1.206,1.206,0,0,1-.508.38,1.827,1.827,0,0,1-.706.132,2.092,2.092,0,0,1-.811-.163A1.745,1.745,0,0,1,69.8-20.786ZM80.5-24.208a.243.243,0,0,1,.159.062.211.211,0,0,1,.074.171.228.228,0,0,1-.008.054.241.241,0,0,1-.016.047l-1.2,3.57a.255.255,0,0,1-.1.113.2.2,0,0,1-.136.035.24.24,0,0,1-.21-.147l-1.094-2.576.14.031-.97,2.545a.229.229,0,0,1-.21.147.218.218,0,0,1-.14-.035A.207.207,0,0,1,76.7-20.3l-1.226-3.57a.258.258,0,0,1-.023-.1.226.226,0,0,1,.066-.167.236.236,0,0,1,.175-.066.226.226,0,0,1,.128.039.2.2,0,0,1,.081.116L77-20.747l-.147-.008,1-2.522a.22.22,0,0,1,.217-.147.221.221,0,0,1,.132.039.259.259,0,0,1,.085.109l1.063,2.53-.171.008,1.094-3.314A.2.2,0,0,1,80.5-24.208Zm1.575,3.818a.223.223,0,0,1-.07.163.223.223,0,0,1-.163.07.22.22,0,0,1-.167-.07.23.23,0,0,1-.066-.163v-3.57a.23.23,0,0,1,.066-.163.22.22,0,0,1,.167-.07.22.22,0,0,1,.167.07.23.23,0,0,1,.066.163Zm-.233-4.323a.354.354,0,0,1-.244-.074A.273.273,0,0,1,81.512-25v-.078a.261.261,0,0,1,.089-.213.373.373,0,0,1,.244-.074.329.329,0,0,1,.229.074.273.273,0,0,1,.081.213V-25a.273.273,0,0,1-.081.213A.341.341,0,0,1,81.838-24.713Zm1.187.605h1.808a.2.2,0,0,1,.155.066.224.224,0,0,1,.062.159.2.2,0,0,1-.062.147.211.211,0,0,1-.155.062H83.026a.217.217,0,0,1-.159-.066.208.208,0,0,1-.066-.151.2.2,0,0,1,.066-.155A.224.224,0,0,1,83.026-24.107Zm.8-1.094a.22.22,0,0,1,.167.07.23.23,0,0,1,.066.163v3.9a.712.712,0,0,0,.058.326.289.289,0,0,0,.151.144.527.527,0,0,0,.186.035.311.311,0,0,0,.113-.019.311.311,0,0,1,.113-.019.159.159,0,0,1,.12.054.2.2,0,0,1,.05.14.213.213,0,0,1-.124.182.567.567,0,0,1-.295.074q-.07,0-.21-.012a.789.789,0,0,1-.287-.085.571.571,0,0,1-.244-.26,1.185,1.185,0,0,1-.1-.535v-3.919a.23.23,0,0,1,.066-.163A.22.22,0,0,1,83.825-25.2Zm3.9,1.048a1.363,1.363,0,0,1,.792.21,1.229,1.229,0,0,1,.446.567,2.1,2.1,0,0,1,.144.792v2.2a.223.223,0,0,1-.07.163.223.223,0,0,1-.163.07.217.217,0,0,1-.171-.07.238.238,0,0,1-.062-.163v-2.2a1.611,1.611,0,0,0-.1-.574.851.851,0,0,0-.314-.407,1,1,0,0,0-.582-.151,1.319,1.319,0,0,0-.617.151,1.283,1.283,0,0,0-.47.407.981.981,0,0,0-.178.574v2.2a.223.223,0,0,1-.07.163.223.223,0,0,1-.163.07.217.217,0,0,1-.171-.07.238.238,0,0,1-.062-.163v-5.277a.23.23,0,0,1,.066-.163.22.22,0,0,1,.167-.07.22.22,0,0,1,.167.07.23.23,0,0,1,.066.163v2.514l-.178.272a1.045,1.045,0,0,1,.151-.47,1.606,1.606,0,0,1,.353-.411,1.746,1.746,0,0,1,.481-.287A1.44,1.44,0,0,1,87.721-24.154Zm7.047-1.436a2.2,2.2,0,0,1,1,.217,1.951,1.951,0,0,1,.71.6,2.7,2.7,0,0,1,.415.873,3.81,3.81,0,0,1,.136,1.024,3.667,3.667,0,0,1-.244,1.362,2.2,2.2,0,0,1-.745.986,2.1,2.1,0,0,1-1.277.369H92.789a.223.223,0,0,1-.163-.07.223.223,0,0,1-.07-.163v-4.967a.223.223,0,0,1,.07-.163.223.223,0,0,1,.163-.07Zm-.078,4.974a1.728,1.728,0,0,0,1.063-.3,1.752,1.752,0,0,0,.594-.819,3.266,3.266,0,0,0,.19-1.137,3.431,3.431,0,0,0-.1-.858,2.188,2.188,0,0,0-.326-.722,1.572,1.572,0,0,0-.574-.5,1.814,1.814,0,0,0-.842-.182h-1.7l.054-.07v4.664L93-20.615Zm7.085-1.529a2.176,2.176,0,0,1-.256,1.059,1.916,1.916,0,0,1-.7.737,1.91,1.91,0,0,1-1.009.268,1.9,1.9,0,0,1-1-.268,1.936,1.936,0,0,1-.706-.737,2.15,2.15,0,0,1-.26-1.059,2.144,2.144,0,0,1,.26-1.063,1.973,1.973,0,0,1,.706-.737,1.88,1.88,0,0,1,1-.272,1.889,1.889,0,0,1,1.009.272,1.953,1.953,0,0,1,.7.737A2.17,2.17,0,0,1,101.775-22.144Zm-.466,0a1.781,1.781,0,0,0-.194-.842,1.5,1.5,0,0,0-.532-.582,1.414,1.414,0,0,0-.772-.213,1.406,1.406,0,0,0-.761.213,1.52,1.52,0,0,0-.539.582,1.752,1.752,0,0,0-.2.842,1.73,1.73,0,0,0,.2.838,1.527,1.527,0,0,0,.539.578,1.406,1.406,0,0,0,.761.213,1.414,1.414,0,0,0,.772-.213,1.508,1.508,0,0,0,.532-.578A1.758,1.758,0,0,0,101.31-22.144Zm3.205-2.072a2.687,2.687,0,0,1,.683.081,1.474,1.474,0,0,1,.5.221.386.386,0,0,1,.19.3.253.253,0,0,1-.054.151.174.174,0,0,1-.147.074.235.235,0,0,1-.151-.047,1.118,1.118,0,0,1-.116-.109.587.587,0,0,0-.167-.116,1.391,1.391,0,0,0-.287-.085,2.107,2.107,0,0,0-.427-.039,1.453,1.453,0,0,0-.784.217,1.559,1.559,0,0,0-.551.586,1.693,1.693,0,0,0-.2.826,1.787,1.787,0,0,0,.194.838,1.484,1.484,0,0,0,.535.586,1.477,1.477,0,0,0,.8.213,1.661,1.661,0,0,0,.481-.054,1.58,1.58,0,0,0,.295-.124.773.773,0,0,0,.213-.167.213.213,0,0,1,.175-.081.189.189,0,0,1,.151.058.223.223,0,0,1,.05.151.4.4,0,0,1-.182.275,1.638,1.638,0,0,1-.5.264,2.182,2.182,0,0,1-.73.113,1.9,1.9,0,0,1-1.02-.272,1.869,1.869,0,0,1-.683-.741,2.259,2.259,0,0,1-.244-1.059,2.158,2.158,0,0,1,.248-1.032,1.972,1.972,0,0,1,.695-.749A1.891,1.891,0,0,1,104.515-24.216Zm2.018.109h1.808a.2.2,0,0,1,.155.066.224.224,0,0,1,.062.159.2.2,0,0,1-.062.147.211.211,0,0,1-.155.062h-1.808a.217.217,0,0,1-.159-.066.208.208,0,0,1-.066-.151.2.2,0,0,1,.066-.155A.224.224,0,0,1,106.532-24.107Zm.8-1.094a.22.22,0,0,1,.167.07.23.23,0,0,1,.066.163v3.9a.712.712,0,0,0,.058.326.289.289,0,0,0,.151.144.527.527,0,0,0,.186.035.311.311,0,0,0,.113-.019.311.311,0,0,1,.113-.019.159.159,0,0,1,.12.054.2.2,0,0,1,.05.14.213.213,0,0,1-.124.182.567.567,0,0,1-.295.074q-.07,0-.21-.012a.789.789,0,0,1-.287-.085.571.571,0,0,1-.244-.26,1.185,1.185,0,0,1-.1-.535v-3.919a.23.23,0,0,1,.066-.163A.22.22,0,0,1,107.332-25.2Zm5.743,3.058a2.176,2.176,0,0,1-.256,1.059,1.916,1.916,0,0,1-.7.737,1.91,1.91,0,0,1-1.009.268,1.9,1.9,0,0,1-1-.268,1.936,1.936,0,0,1-.706-.737,2.15,2.15,0,0,1-.26-1.059,2.144,2.144,0,0,1,.26-1.063,1.973,1.973,0,0,1,.706-.737,1.88,1.88,0,0,1,1-.272,1.889,1.889,0,0,1,1.009.272,1.953,1.953,0,0,1,.7.737A2.17,2.17,0,0,1,113.075-22.144Zm-.466,0a1.781,1.781,0,0,0-.194-.842,1.5,1.5,0,0,0-.532-.582,1.414,1.414,0,0,0-.772-.213,1.406,1.406,0,0,0-.761.213,1.52,1.52,0,0,0-.539.582,1.752,1.752,0,0,0-.2.842,1.73,1.73,0,0,0,.2.838,1.527,1.527,0,0,0,.539.578,1.406,1.406,0,0,0,.761.213,1.414,1.414,0,0,0,.772-.213,1.508,1.508,0,0,0,.532-.578A1.758,1.758,0,0,0,112.609-22.144Zm1.692,1.987a.217.217,0,0,1-.171-.07.238.238,0,0,1-.062-.163v-3.477a.23.23,0,0,1,.066-.163.22.22,0,0,1,.167-.07.22.22,0,0,1,.167.07.23.23,0,0,1,.066.163V-22.7l-.116.023a1.778,1.778,0,0,1,.136-.539,1.847,1.847,0,0,1,.307-.493,1.551,1.551,0,0,1,.462-.365,1.281,1.281,0,0,1,.6-.14.666.666,0,0,1,.272.058.2.2,0,0,1,.132.19.242.242,0,0,1-.062.178.2.2,0,0,1-.147.062.355.355,0,0,1-.151-.039.5.5,0,0,0-.213-.039.85.85,0,0,0-.435.128,1.5,1.5,0,0,0-.4.345,1.781,1.781,0,0,0-.283.485,1.47,1.47,0,0,0-.1.539v1.917a.223.223,0,0,1-.07.163A.223.223,0,0,1,114.3-20.157Zm2.53-.629a.3.3,0,0,1-.058-.182.172.172,0,0,1,.1-.144.183.183,0,0,1,.144-.047.246.246,0,0,1,.151.078,1.654,1.654,0,0,0,.508.438,1.434,1.434,0,0,0,.71.167,1.311,1.311,0,0,0,.431-.074.847.847,0,0,0,.353-.225.544.544,0,0,0,.14-.384.541.541,0,0,0-.14-.388.968.968,0,0,0-.361-.233,3.991,3.991,0,0,0-.47-.147q-.264-.07-.512-.159a1.793,1.793,0,0,1-.438-.225,1.094,1.094,0,0,1-.307-.33.9.9,0,0,1-.116-.473.958.958,0,0,1,.179-.574,1.19,1.19,0,0,1,.485-.388,1.657,1.657,0,0,1,.695-.14,1.923,1.923,0,0,1,.419.05,1.741,1.741,0,0,1,.442.167,1.329,1.329,0,0,1,.388.318.219.219,0,0,1,.07.159.21.21,0,0,1-.078.159.233.233,0,0,1-.144.047.173.173,0,0,1-.136-.062,1.225,1.225,0,0,0-.442-.318,1.4,1.4,0,0,0-.551-.109,1.2,1.2,0,0,0-.423.074.817.817,0,0,0-.33.221.56.56,0,0,0-.132.388.541.541,0,0,0,.159.365,1.132,1.132,0,0,0,.38.233,4.78,4.78,0,0,0,.532.171,4.464,4.464,0,0,1,.477.147,1.657,1.657,0,0,1,.4.213.959.959,0,0,1,.279.322,1.021,1.021,0,0,1,.1.489.942.942,0,0,1-.19.59,1.206,1.206,0,0,1-.508.38,1.827,1.827,0,0,1-.706.132,2.093,2.093,0,0,1-.811-.163A1.745,1.745,0,0,1,116.831-20.786Z" transform="translate(-1.68 44.672)" fill="#4d3d33"/>
    </g>
  </g>
</svg>
